<?xml version="1.0" encoding="utf-8"?>
<!-- Designed by Vexels.com - 2016 All Rights Reserved - https://vexels.com/terms-and-conditions/  -->

<svg version="1.0" id="Capa_1" xmlns="http://www.w3.org/2000/svg" xmlns:xlink="http://www.w3.org/1999/xlink" x="0px" y="0px"
	 width="1200px" height="1200px" viewBox="0 0 1200 1200" enable-background="new 0 0 1200 1200" xml:space="preserve">
<g>
	<path d="M250.867,992.005l223.033,0.557v-0.006c0.038,0.001,0.074,0.006,0.112,0.006c12.632,0,22.873-10.24,22.873-22.873
		c0-12.632-10.24-22.873-22.873-22.873h0l0-0.166l-223.037-0.557c-28.352-0.072-53.573-14.87-67.461-39.59
		c-13.891-24.724-13.419-53.966,1.275-78.229l95.995-158.5l83.091,42.563l13.547-247.877L146.953,601.166l92.878,47.597
		l-94.317,155.729c-23.377,38.607-24.135,85.149-2.029,124.498C165.586,968.343,205.729,991.9,250.867,992.005z"/>
	<path d="M948.491,625.373c-0.668-1.4-1.468-2.719-2.391-3.947l-0.104-0.172l-0.017,0.01c-4.246-5.553-10.919-9.15-18.449-9.15
		c-12.833,0-23.236,10.403-23.236,23.236c0,5.941,2.248,11.344,5.917,15.452l104.994,173.372
		c14.693,24.251,15.171,53.493,1.283,78.221c-13.891,24.72-39.112,39.518-67.468,39.59l-188.922,0.472l1.541-110.367L553.5,958.983
		L757.861,1100l1.579-111.63l189.691-0.474c45.126-0.104,85.273-23.662,107.387-63.015c22.106-39.353,21.344-85.895-2.037-124.494
		L948.491,625.373z"/>
	<path d="M906.062,592.217l-2.997-267.952l-65.328,42.149L710.363,158.896c-23.449-38.198-64.394-60.092-109.231-58.845
		c-44.894,1.439-84.235,26.003-105.23,65.705L378.123,388.428c-3.185,3.977-5.101,9.015-5.101,14.506
		c0,12.833,10.403,23.236,23.236,23.236c9.762,0,18.103-6.027,21.543-14.557l118.681-224.39
		c13.202-24.945,37.918-40.379,66.146-41.289c28.056-0.894,53.802,12.853,68.611,36.975L799.14,391.292l-100.929,65.08
		L906.062,592.217z"/>
</g>
</svg>
